<svg width="18" height="18" viewBox="0 0 18 18" fill="none" xmlns="http://www.w3.org/2000/svg">
<path fill-rule="evenodd" clip-rule="evenodd" d="M16 15C16 15.551 15.552 16 15 16H13V13C13 12.448 12.553 12 12 12H6C5.447 12 5 12.448 5 13V16H3C2.448 16 2 15.551 2 15V3C2 2.449 2.448 2 3 2H5V7C5 7.552 5.447 8 6 8H10C10.553 8 11 7.552 11 7C11 6.448 10.553 6 10 6H7V2H10.172C10.435 2 10.692 2.107 10.879 2.293L15.707 7.121C15.896 7.31 16 7.562 16 7.829V15ZM7 16H11V14H7V16ZM17.121 5.707L12.293 0.879C11.727 0.312 10.973 0 10.172 0H3C1.346 0 0 1.346 0 3V15C0 16.654 1.346 18 3 18H6H12H15C16.654 18 18 16.654 18 15V7.829C18 7.027 17.687 6.273 17.121 5.707Z" fill="white"/>
</svg>
